<?xml version="1.0" encoding="UTF-8"?>
<svg width="579px" height="139px" viewBox="0 0 579 139" version="1.1" xmlns="http://www.w3.org/2000/svg" xmlns:xlink="http://www.w3.org/1999/xlink">
    <!-- Generator: Sketch 47.1 (45422) - http://www.bohemiancoding.com/sketch -->
    <title>logo-dark</title>
    <desc>Created with Sketch.</desc>
    <defs></defs>
    <g id="Page-1" stroke="none" stroke-width="1" fill="none" fill-rule="evenodd">
        <g id="logo-dark" fill="#313131">
            <path d="M93.1100603,18.4777557 L64.2514944,117.952358 L38.3808103,117.952358 L12,18.4777557 L41.1500666,18.4777557 L60.8263616,93.8306778 L82.3245357,18.4777557 L93.1100603,18.4777557 Z M113.223606,16 C121.482833,16 125.612385,19.2064753 125.612385,25.619522 C125.612385,32.0325687 121.482833,35.239044 113.223606,35.239044 C104.964379,35.239044 100.834828,32.0325687 100.834828,25.619522 C100.834828,19.2064753 104.964379,16 113.223606,16 Z M99.7417005,117.952358 L99.7417005,44.5670653 C108.049511,44.5670653 116.915901,43.9111953 126.341136,42.5994358 L126.341136,117.952358 L99.7417005,117.952358 Z M207.232571,16.9473772 L207.232571,117.952358 L180.633135,117.952358 L180.633135,111.612218 C176.163436,116.956424 170.187732,119.628487 162.705844,119.628487 C146.187391,119.628487 137.928288,106.948335 137.928288,81.5876499 C137.928288,55.4982098 146.67322,42.4536854 164.163348,42.4536854 C171.062231,42.4536854 176.552106,45.4901203 180.633135,51.5630813 L180.633135,18.4777557 C188.649444,18.4777557 197.515834,17.9676346 207.232571,16.9473772 Z M172.762617,53.1663349 C168.292918,53.1663349 166.058102,57.2715949 166.058102,65.4822381 L165.547976,81.0775237 L165.839476,95.2881812 C165.839476,104.373331 168.36579,108.915837 173.418494,108.915837 C178.325446,108.915837 180.778886,104.446205 180.778886,95.5068067 L181.143261,77.5795157 L180.56026,65.3364877 C179.782921,57.223012 177.183733,53.1663349 172.762617,53.1663349 Z M329.37135,117.952358 L302.771914,117.952358 L302.771914,62.7858569 C302.771914,57.9760719 301.363009,55.5712154 298.545155,55.5712154 C292.034941,55.5712154 288.779882,62.494287 288.779882,76.3406379 L288.779882,117.952358 L262.180447,117.952358 L262.180447,63.9518596 C262.180447,58.4619029 260.91729,55.7169657 258.390938,55.7169657 C251.783556,55.7169657 248.479915,62.6157459 248.479915,76.413513 L248.479915,117.952358 L221.88048,117.952358 L221.88048,44.2755646 C230.868462,44.2755646 239.734852,43.6682776 248.479915,42.4536854 L248.479915,55.1339644 C254.747211,46.7289865 262.471901,42.5265606 271.654218,42.5265606 C279.330441,42.5265606 285.038938,46.4860717 288.779882,54.4052127 C294.707092,46.3889044 302.115993,42.3808103 311.006808,42.3808103 C323.249897,42.3808103 329.37135,48.5751375 329.37135,60.9639777 L329.37135,117.952358 Z M418.424804,115.328852 C411.914589,117.855204 405.574513,119.118361 399.404385,119.118361 C390.270652,119.118361 384.635029,116.276258 382.497347,110.591966 C378.076231,116.519176 371.711863,119.482736 363.404053,119.482736 C347.905857,119.482736 340.156875,112.292459 340.156875,97.9116871 C340.156875,86.9803575 347.249987,79.3042501 361.436423,74.8831345 C374.456852,70.8021048 380.966968,65.895226 380.966968,60.1623509 C380.966968,52.6318794 377.22608,48.8667001 369.744192,48.8667001 C361.096296,48.8667001 356.772413,52.510422 356.772413,59.7979751 C356.772413,62.0814084 357.452574,65.0935518 358.812917,68.8344957 L345.622512,66.2838649 C345.282426,64.0004316 345.112386,61.8627814 345.112386,59.8708502 C345.112386,48.2107653 355.752054,42.3808103 377.031709,42.3808103 C397.242523,42.3808103 407.347778,47.8221016 407.347778,58.7048476 L407.347778,103.304449 C407.347778,107.871316 408.829559,110.154715 411.793163,110.154715 C412.716253,110.154715 414.076576,109.644594 415.874173,108.624337 L418.424804,115.328852 Z M380.748343,73.790007 C379.096497,75.6847708 377.17747,77.263717 374.991204,78.5268929 C369.501248,81.7334162 366.756311,87.1261246 366.756311,94.7051798 C366.756311,104.421917 368.651046,109.280213 372.440574,109.280213 C377.979114,109.280213 380.748343,104.4705 380.748343,94.8509302 L380.748343,73.790007 Z M480.660196,63.3688582 L467.761291,65.6279884 C467.761291,54.6480751 462.660081,49.1582008 452.457506,49.1582008 C446.190211,49.1582008 443.05661,51.7330976 443.05661,56.8829684 C443.05661,60.672496 448.449318,64.7534645 459.234897,69.1259964 C475.75335,75.8791289 484.012453,84.4540211 484.012453,94.8509302 C484.012453,111.417968 473.494243,119.701362 452.457506,119.701362 C430.206178,119.701362 419.08068,111.417968 419.08068,94.8509302 L432.781211,92.0816738 C432.586877,93.6849355 432.489711,95.1910072 432.489711,96.5999342 C432.489711,100.875299 434.275134,104.591895 437.846035,107.749835 C441.416936,110.907774 445.631508,112.48672 450.489877,112.48672 C456.902924,112.48672 460.109399,109.766075 460.109399,104.324702 C460.109399,100.680925 454.935314,96.6485397 444.586988,92.2274242 C428.991625,85.5228753 421.19406,76.9236917 421.19406,66.4296152 C421.19406,59.4821479 424.181912,53.7857961 430.157705,49.3403887 C436.133499,44.8949813 443.809606,42.6723109 453.186258,42.6723109 C469.850463,42.6723109 479.00835,49.571091 480.660196,63.3688582 Z M559.875502,44.4941901 L544.717467,63.5146086 L566.580017,117.952358 L538.523078,117.952358 L525.769924,85.595784 L520.887288,91.5715477 L520.887288,117.952358 L494.287852,117.952358 L494.287852,18.4777557 C502.109826,18.4777557 510.976215,17.9433431 520.887288,16.874502 L520.887288,79.1098942 L549.235727,44.4941901 L559.875502,44.4941901 Z" id="Vidmask"></path>
        </g>
    </g>
</svg>